<svg version="1.0" xmlns="http://www.w3.org/2000/svg" xmlns:xlink="http://www.w3.org/1999/xlink"
  viewBox="0 0 340 250" color-interpolation-filters="sRGB" style="margin:auto">
  <rect width="100%" height="100%" fill="#fff" class="background" />
  <rect width="100%" height="100%" fill="url(#watermark)" class="watermarklayer" />
  <g class="iconmbgsvg">
    <g transform="translate(113.75 56.578)" opacity=".55">
      <path class="image-rect" fill="none" d="M0 0h112.5v136.845H0z" />
      <svg width="112.5" height="136.845" class="image-svg-svg primary" style="overflow:visible">
        <svg xmlns="http://www.w3.org/2000/svg" viewBox="0 0 82.21 100">
          <g fill-rule="evenodd">
            <path fill="#1f63ea"
              d="M41.09 71.17 24.94 43.21l-4.4-7.62-3.91-6.79H0l20.54 35.61L41.09 100l20.57-35.59L82.21 28.8H65.58l-3.92 6.79-4.42 7.62-16.15 27.96z" />
            <path fill="#7385fb" d="M41.09 28.8h24.49L82.21 0 41.09 14.41 0 0l16.63 28.8h24.46z" />
          </g>
        </svg>
      </svg>
    </g>
    <path
      d="M105.2 107.205v9.7h-5.99q-.14-.92-.64-1.72-.5-.8-1.23-1.38-.72-.58-1.61-.9-.89-.31-1.83-.31-1.14 0-1.85.43-.71.44-.71 1.22 0 .74.64 1.2.63.46 1.67.8 1.03.34 2.35.64 1.33.31 2.7.77 1.36.45 2.69 1.09 1.32.65 2.36 1.65 1.03 1.01 1.66 2.46.64 1.45.64 3.48 0 2.16-.93 3.68-.92 1.52-2.48 2.5t-3.59 1.44q-2.03.45-4.21.45-2.12 0-4.05-.49-1.93-.49-3.94-1.6v1.6h-5.99v-9.88h5.99q.52 2.12 2.1 3.34 1.58 1.23 3.55 1.23 1.33 0 1.98-.5.65-.5.65-1.13 0-1-1.08-1.55-1.08-.54-2.67-.97-1.6-.42-3.49-.96-1.9-.53-3.49-1.54-1.6-1-2.68-2.65t-1.08-4.32q0-1.98.86-3.5.85-1.52 2.28-2.57 1.43-1.04 3.31-1.57 1.88-.54 3.96-.54 2.89 0 4.95.67 2.07.67 3.21 1.42v-1.69h5.99zm21.72 27.31q-1.16 0-2.07-.12-.91-.12-1.65-.33-.74-.22-1.41-.52-.67-.3-1.34-.63v1.78q0 .96.33 1.37.34.41 1.32.41h1.07v6.72H107.9v-6.72h1.09q.74 0 1.13-.48.39-.48.39-1.16v-12.72q0-.86-.51-1.16-.51-.29-1.14-.29h-.96v-6.73h11.77v3.72h.3q.67-1.89 2.38-3.12 1.7-1.24 4.68-1.24 4.26 0 6.66 2.7 2.4 2.69 2.4 7.89 0 5.21-2.45 7.92-2.46 2.71-6.72 2.71zm-1.16-10.45q0-.96-.11-1.83-.11-.87-.41-1.52t-.8-1.02q-.5-.38-1.31-.38-.82 0-1.34.36-.53.35-.82.97-.29.61-.41 1.47-.11.85-.11 1.81v4.46q.3.47 1.14.75.83.28 1.54.28.81 0 1.31-.46t.8-1.22q.3-.76.41-1.73.11-.96.11-1.94zm11.82-.18q0-2.66.93-4.68.92-2.01 2.63-3.36 1.72-1.35 4.13-2.04t5.38-.69q2.98 0 5.39.69 2.41.69 4.12 2.04 1.7 1.35 2.63 3.36.94 2.02.94 4.68 0 2.63-.94 4.66-.93 2.03-2.63 3.4-1.71 1.37-4.12 2.06t-5.39.69q-2.97 0-5.38-.69-2.41-.69-4.13-2.06-1.71-1.37-2.63-3.4-.93-2.03-.93-4.66zm10.32 0q0 1.53.13 2.59.14 1.06.45 1.7.31.64.83.94.53.3 1.34.3.82 0 1.34-.3.51-.3.83-.94.32-.64.44-1.7.13-1.06.13-2.59 0-3.04-.57-4.27-.57-1.22-2.17-1.22-.81 0-1.34.28-.52.28-.83.92-.31.65-.45 1.71-.13 1.06-.13 2.58zm33.94 10.03h-16.63v-6.73q1.6 0 2.29-.42.69-.43.69-1.61v-9.17q0-1.2-.69-1.63-.69-.42-2.29-.42v-6.73h16.63v6.73q-1.59 0-2.27.42-.68.43-.68 1.63v9.17q0 1.18.68 1.61.68.42 2.27.42v6.73zm1.67-17.37v-5.98q.78 0 1.68-.16.89-.15 1.63-.52.73-.38 1.22-1.02t.49-1.66h8.4v18.02q0 1.22.59 1.59.59.37 1.51.37h1.23v6.73h-16.37v-6.73h1.45q.96 0 1.42-.6.47-.61.47-1.32v-8.72h-3.72zm31.21-9.7q2.19 0 4.32.33 2.13.34 3.83 1.17 1.69.84 2.72 2.23 1.04 1.4 1.04 3.5 0 2.54-1.42 4.14-1.43 1.59-4.22 1.99v.2q3.05.26 4.92 1.85 1.88 1.6 1.88 4.64 0 1.31-.62 2.68-.61 1.37-2.12 2.5-1.5 1.13-4.04 1.86-2.54.72-6.44.72-3.79 0-6.3-.72-2.51-.73-3.97-1.86-1.46-1.13-2.06-2.5-.6-1.37-.6-2.68 0-3.04 1.88-4.64 1.88-1.59 4.92-1.85v-.2q-2.79-.4-4.24-1.99-1.45-1.6-1.45-4.14 0-2.1.99-3.5.98-1.39 2.63-2.23 1.65-.83 3.83-1.17 2.18-.33 4.52-.33zm0 15.52q-1.42 0-2.09.92-.67.93-.67 2.45 0 1.53.67 2.5t2.09.97q1.41 0 2.08-.97.67-.97.67-2.5 0-1.52-.67-2.45-.67-.92-2.08-.92zm-.04-10.25q-1.2 0-1.73.84-.54.83-.54 2.21 0 1.32.54 2.2.53.88 1.73.88 1.21 0 1.76-.88.54-.88.54-2.2 0-1.38-.54-2.21-.55-.84-1.76-.84zm32.13 21.8v-11.59q0-.7-.17-1.13-.17-.43-.44-.65-.26-.23-.59-.3-.32-.07-.63-.07-1.18 0-1.76.68-.58.69-.58 1.96v2.6q0 .96.33 1.36.34.41 1.3.41h.98v6.73h-15.16v-6.73h1.07q.74 0 1.13-.48.39-.48.39-1.15v-3.44q0-.86-.49-1.16-.5-.29-1.14-.29h-.96v-6.73h10.77l-.38 4.98h.31q.4-2.79 2.45-4.29 2.05-1.51 5.56-1.51 2.49 0 4.05.71 1.56.71 2.42 1.79.86 1.07 1.17 2.33.31 1.26.31 2.37v5.1q0 .96.33 1.36.34.41 1.3.41h.98v6.73h-12.55z"
      data-gra="path-name" class="tp-name" />
  </g>
</svg>